  0
SECTION
  2
BLOCKS
  0
ENDSEC
  0
SECTION
  2
ENTITIES
  0
LINE
  8
0
 10
-2
 11
-2
 20
-20
 21
-6.01
  0
LINE
  8
0
 10
-2
 11
-1
 20
-6.01
 21
-6.01
  0
LINE
  8
0
 10
-1
 11
-1
 20
-6.01
 21
-3
  0
LINE
  8
0
 10
-1
 11
0
 20
-3
 21
-3
  0
LINE
  8
0
 10
0
 11
0
 20
-3
 21
3
  0
LINE
  8
0
 10
0
 11
-1
 20
3
 21
3
  0
LINE
  8
0
 10
-1
 11
-1
 20
3
 21
6.01
  0
LINE
  8
0
 10
-1
 11
-2
 20
6.01
 21
6.01
  0
LINE
  8
0
 10
-2
 11
-2
 20
6.01
 21
20
  0
LINE
  8
0
 10
-2
 11
3
 20
20
 21
20
  0
LINE
  8
0
 10
3
 11
3
 20
20
 21
4
  0
LINE
  8
0
 10
3
 11
19.531
 20
4
 21
4
  0
LINE
  8
0
 10
19.531
 11
19.563
 20
4
 21
5.152
  0
LINE
  8
0
 10
19.563
 11
23.03
 20
5.152
 21
22.814
  0
LINE
  8
0
 10
23.03
 11
24.18
 20
22.814
 21
22.814
  0
LINE
  8
0
 10
24.18
 11
27.647
 20
22.814
 21
5.152
  0
LINE
  8
0
 10
27.647
 11
27.679
 20
5.152
 21
4
  0
LINE
  8
0
 10
27.679
 11
45.531
 20
4
 21
4
  0
LINE
  8
0
 10
45.531
 11
45.563
 20
4
 21
5.152
  0
LINE
  8
0
 10
45.563
 11
49.03
 20
5.152
 21
22.814
  0
LINE
  8
0
 10
49.03
 11
50.18
 20
22.814
 21
22.814
  0
LINE
  8
0
 10
50.18
 11
53.647
 20
22.814
 21
5.152
  0
LINE
  8
0
 10
53.647
 11
53.679
 20
5.152
 21
4
  0
LINE
  8
0
 10
53.679
 11
71.531
 20
4
 21
4
  0
LINE
  8
0
 10
71.531
 11
71.563
 20
4
 21
5.152
  0
LINE
  8
0
 10
71.563
 11
75.03
 20
5.152
 21
22.814
  0
LINE
  8
0
 10
75.03
 11
76.18
 20
22.814
 21
22.814
  0
LINE
  8
0
 10
76.18
 11
79.647
 20
22.814
 21
5.152
  0
LINE
  8
0
 10
79.647
 11
79.679
 20
5.152
 21
4
  0
LINE
  8
0
 10
79.679
 11
100.603
 20
4
 21
4
  0
LINE
  8
0
 10
100.603
 11
101.556
 20
4
 21
7.264
  0
LINE
  8
0
 10
101.556
 11
101.808
 20
7.264
 21
7.264
  0
LINE
  8
0
 10
101.808
 11
102.373
 20
7.264
 21
4.37
  0
LINE
  8
0
 10
102.373
 11
102.418
 20
4.37
 21
4
  0
LINE
  8
0
 10
102.418
 11
125
 20
4
 21
4
  0
LINE
  8
0
 10
125
 11
125
 20
4
 21
-4
  0
LINE
  8
0
 10
125
 11
92.679
 20
-4
 21
-4
  0
LINE
  8
0
 10
92.679
 11
92.647
 20
-4
 21
-5.152
  0
LINE
  8
0
 10
92.647
 11
89.18
 20
-5.152
 21
-22.814
  0
LINE
  8
0
 10
89.18
 11
88.03
 20
-22.814
 21
-22.814
  0
LINE
  8
0
 10
88.03
 11
84.563
 20
-22.814
 21
-5.152
  0
LINE
  8
0
 10
84.563
 11
84.531
 20
-5.152
 21
-4
  0
LINE
  8
0
 10
84.531
 11
66.679
 20
-4
 21
-4
  0
LINE
  8
0
 10
66.679
 11
66.647
 20
-4
 21
-5.152
  0
LINE
  8
0
 10
66.647
 11
63.18
 20
-5.152
 21
-22.814
  0
LINE
  8
0
 10
63.18
 11
62.03
 20
-22.814
 21
-22.814
  0
LINE
  8
0
 10
62.03
 11
58.563
 20
-22.814
 21
-5.152
  0
LINE
  8
0
 10
58.563
 11
58.531
 20
-5.152
 21
-4
  0
LINE
  8
0
 10
58.531
 11
40.679
 20
-4
 21
-4
  0
LINE
  8
0
 10
40.679
 11
40.647
 20
-4
 21
-5.152
  0
LINE
  8
0
 10
40.647
 11
37.18
 20
-5.152
 21
-22.814
  0
LINE
  8
0
 10
37.18
 11
36.03
 20
-22.814
 21
-22.814
  0
LINE
  8
0
 10
36.03
 11
32.563
 20
-22.814
 21
-5.152
  0
LINE
  8
0
 10
32.563
 11
32.531
 20
-5.152
 21
-4
  0
LINE
  8
0
 10
32.531
 11
14.594
 20
-4
 21
-4
  0
LINE
  8
0
 10
14.594
 11
14.615
 20
-4
 21
-5.117
  0
LINE
  8
0
 10
14.615
 11
11.147
 20
-5.117
 21
-22.131
  0
LINE
  8
0
 10
11.147
 11
10.037
 20
-22.131
 21
-22.131
  0
LINE
  8
0
 10
10.037
 11
6.806
 20
-22.131
 21
-5.152
  0
LINE
  8
0
 10
6.806
 11
6.719
 20
-5.152
 21
-4
  0
LINE
  8
0
 10
6.719
 11
3
 20
-4
 21
-4
  0
LINE
  8
0
 10
3
 11
3
 20
-4
 21
-20
  0
LINE
  8
0
 10
3
 11
-2
 20
-20
 21
-20
  0
ENDSEC
  0
SECTION
  2
OBJECTS
  0
DICTIONARY
  0
ENDSEC
  0
EOF
