999
dxfrw 0.5.10
0
SECTION
2
HEADER
9
$ACADVER
1
AC1021
9
$HANDSEED
5
20000
9
$DWGCODEPAGE
3
ANSI_1252
9
$INSBASE
10
0
20
0
30
0
9
$EXTMIN
10
-225.147186258
20
-179.988053106
30
0
9
$EXTMAX
10
633.57124728
20
621.071247281
30
0
9
$LIMMIN
10
0
20
0
9
$LIMMAX
10
420
20
297
9
$ORTHOMODE
70
0
9
$LTSCALE
40
1
9
$TEXTSTYLE
7
STANDARD
9
$CLAYER
8
auger
9
$DIMASZ
40
2.5
9
$DIMLFAC
40
1
9
$DIMSCALE
40
1
9
$DIMEXO
40
0.625
9
$DIMEXE
40
1.25
9
$DIMTXT
40
2.5
9
$DIMTSZ
40
0
9
$DIMAUNIT
70
0
9
$DIMADEC
70
2
9
$DIMLUNIT
70
2
9
$DIMSTYLE
2
STANDARD
9
$DIMGAP
40
0.625
9
$DIMTIH
70
0
9
$LUNITS
70
2
9
$LUPREC
70
4
9
$AUNITS
70
0
9
$AUPREC
70
2
9
$SPLINESEGS
70
8
9
$GRIDMODE
70
1
9
$SNAPSTYLE
70
0
9
$GRIDUNIT
10
0
20
0
9
$PINSBASE
10
0
20
0
30
0
9
$PLIMMIN
10
0
20
0
9
$PLIMMAX
10
210
20
297
9
$INSUNITS
70
4
9
$PSVPSCALE
40
1
0
ENDSEC
0
SECTION
2
CLASSES
0
ENDSEC
0
SECTION
2
TABLES
0
TABLE
2
VPORT
5
8
330
0
100
AcDbSymbolTable
70
1
0
VPORT
5
31
330
2
100
AcDbSymbolTableRecord
100
AcDbViewportTableRecord
2
*ACTIVE
70
0
10
0
20
0
11
1
21
1
12
120.120953167
22
33.0747785793
13
0
23
0
14
10
24
10
15
10
25
10
16
0
26
0
36
1
17
0
27
0
37
0
40
215.332031253
41
2.01928020566
42
50
43
0
44
0
50
0
51
0
71
0
72
100
73
1
74
3
75
0
76
1
77
0
78
0
281
0
65
1
110
0
120
0
130
0
111
1
121
0
131
0
112
0
122
1
132
0
79
0
146
0
348
10020
60
7
61
5
292
1
282
1
141
0
142
0
63
250
421
3358443
0
ENDTAB
0
TABLE
2
LTYPE
5
5
330
0
100
AcDbSymbolTable
70
4
0
LTYPE
5
14
330
5
100
AcDbSymbolTableRecord
100
AcDbLinetypeTableRecord
2
ByBlock
70
0
3

72
65
73
0
40
0
0
LTYPE
5
15
330
5
100
AcDbSymbolTableRecord
100
AcDbLinetypeTableRecord
2
ByLayer
70
0
3

72
65
73
0
40
0
0
LTYPE
5
16
330
5
100
AcDbSymbolTableRecord
100
AcDbLinetypeTableRecord
2
Continuous
70
0
3
Solid line
72
65
73
0
40
0
0
LTYPE
5
32
330
5
100
AcDbSymbolTableRecord
100
AcDbLinetypeTableRecord
2
DOT
70
0
3
Dot . . . . . . . . . . . . . . . . . . . . . .
72
65
73
2
40
6.35
49
0
74
0
49
-6.35
74
0
0
LTYPE
5
33
330
5
100
AcDbSymbolTableRecord
100
AcDbLinetypeTableRecord
2
DOT2
70
0
3
Dot (.5x) .....................................
72
65
73
2
40
3.175
49
0
74
0
49
-3.175
74
0
0
LTYPE
5
34
330
5
100
AcDbSymbolTableRecord
100
AcDbLinetypeTableRecord
2
DOTX2
70
0
3
Dot (2x) .  .  .  .  .  .  .  .  .  .  .  .  .
72
65
73
2
40
12.7
49
0
74
0
49
-12.7
74
0
0
LTYPE
5
35
330
5
100
AcDbSymbolTableRecord
100
AcDbLinetypeTableRecord
2
DASHED
70
0
3
Dot . . . . . . . . . . . . . . . . . . . . . .
72
65
73
2
40
19.05
49
12.7
74
0
49
-6.35
74
0
0
LTYPE
5
36
330
5
100
AcDbSymbolTableRecord
100
AcDbLinetypeTableRecord
2
DASHED2
70
0
3
Dashed (.5x) _ _ _ _ _ _ _ _ _ _ _ _ _ _ _ _ _
72
65
73
2
40
9.525
49
6.35
74
0
49
-3.175
74
0
0
LTYPE
5
37
330
5
100
AcDbSymbolTableRecord
100
AcDbLinetypeTableRecord
2
DASHEDX2
70
0
3
Dashed (2x) ____  ____  ____  ____  ____  ___
72
65
73
2
40
38.1
49
25.4
74
0
49
-12.7
74
0
0
LTYPE
5
38
330
5
100
AcDbSymbolTableRecord
100
AcDbLinetypeTableRecord
2
DASHDOT
70
0
3
Dash dot __ . __ . __ . __ . __ . __ . __ . __
72
65
73
4
40
25.4
49
12.7
74
0
49
-6.35
74
0
49
0
74
0
49
-6.35
74
0
0
LTYPE
5
39
330
5
100
AcDbSymbolTableRecord
100
AcDbLinetypeTableRecord
2
DASHDOT2
70
0
3
Dash dot (.5x) _._._._._._._._._._._._._._._.
72
65
73
4
40
12.7
49
6.35
74
0
49
-3.175
74
0
49
0
74
0
49
-3.175
74
0
0
LTYPE
5
3A
330
5
100
AcDbSymbolTableRecord
100
AcDbLinetypeTableRecord
2
DASHDOTX2
70
0
3
Dash dot (2x) ____  .  ____  .  ____  .  ___
72
65
73
4
40
50.8
49
25.4
74
0
49
-12.7
74
0
49
0
74
0
49
-12.7
74
0
0
LTYPE
5
3B
330
5
100
AcDbSymbolTableRecord
100
AcDbLinetypeTableRecord
2
DIVIDE
70
0
3
Divide ____ . . ____ . . ____ . . ____ . . ____
72
65
73
6
40
31.75
49
12.7
74
0
49
-6.35
74
0
49
0
74
0
49
-6.35
74
0
49
0
74
0
49
-6.35
74
0
0
LTYPE
5
3C
330
5
100
AcDbSymbolTableRecord
100
AcDbLinetypeTableRecord
2
DIVIDE2
70
0
3
Divide (.5x) __..__..__..__..__..__..__..__.._
72
65
73
6
40
15.875
49
6.35
74
0
49
-3.175
74
0
49
0
74
0
49
-3.175
74
0
49
0
74
0
49
-3.175
74
0
0
LTYPE
5
3D
330
5
100
AcDbSymbolTableRecord
100
AcDbLinetypeTableRecord
2
DIVIDEX2
70
0
3
Divide (2x) ________  .  .  ________  .  .  _
72
65
73
6
40
63.5
49
25.4
74
0
49
-12.7
74
0
49
0
74
0
49
-12.7
74
0
49
0
74
0
49
-12.7
74
0
0
LTYPE
5
3E
330
5
100
AcDbSymbolTableRecord
100
AcDbLinetypeTableRecord
2
BORDER
70
0
3
Border __ __ . __ __ . __ __ . __ __ . __ __ .
72
65
73
6
40
44.45
49
12.7
74
0
49
-6.35
74
0
49
12.7
74
0
49
-6.35
74
0
49
0
74
0
49
-6.35
74
0
0
LTYPE
5
3F
330
5
100
AcDbSymbolTableRecord
100
AcDbLinetypeTableRecord
2
BORDER2
70
0
3
Border (.5x) __.__.__.__.__.__.__.__.__.__.__.
72
65
73
6
40
22.225
49
6.35
74
0
49
-3.175
74
0
49
6.35
74
0
49
-3.175
74
0
49
0
74
0
49
-3.175
74
0
0
LTYPE
5
40
330
5
100
AcDbSymbolTableRecord
100
AcDbLinetypeTableRecord
2
BORDERX2
70
0
3
Border (2x) ____  ____  .  ____  ____  .  ___
72
65
73
6
40
88.9
49
25.4
74
0
49
-12.7
74
0
49
25.4
74
0
49
-12.7
74
0
49
0
74
0
49
-12.7
74
0
0
LTYPE
5
41
330
5
100
AcDbSymbolTableRecord
100
AcDbLinetypeTableRecord
2
CENTER
70
0
3
Center ____ _ ____ _ ____ _ ____ _ ____ _ ____
72
65
73
4
40
50.8
49
31.75
74
0
49
-6.35
74
0
49
6.35
74
0
49
-6.35
74
0
0
LTYPE
5
42
330
5
100
AcDbSymbolTableRecord
100
AcDbLinetypeTableRecord
2
CENTER2
70
0
3
Center (.5x) ___ _ ___ _ ___ _ ___ _ ___ _ ___
72
65
73
4
40
28.575
49
19.05
74
0
49
-3.175
74
0
49
3.175
74
0
49
-3.175
74
0
0
LTYPE
5
43
330
5
100
AcDbSymbolTableRecord
100
AcDbLinetypeTableRecord
2
CENTERX2
70
0
3
Center (2x) ________  __  ________  __  _____
72
65
73
4
40
101.6
49
63.5
74
0
49
-12.7
74
0
49
12.7
74
0
49
-12.7
74
0
0
ENDTAB
0
TABLE
2
LAYER
5
2
330
0
100
AcDbSymbolTable
70
1
0
LAYER
5
10
330
2
100
AcDbSymbolTableRecord
100
AcDbLayerTableRecord
2
0
70
1
62
7
6
CONTINUOUS
370
0
390
F
0
LAYER
5
44
330
2
100
AcDbSymbolTableRecord
100
AcDbLayerTableRecord
2
help
70
1
62
7
6
CONTINUOUS
290
0
370
0
390
F
0
LAYER
5
45
330
2
100
AcDbSymbolTableRecord
100
AcDbLayerTableRecord
2
tubo
70
0
62
5
6
CONTINUOUS
370
50
390
F
0
LAYER
5
46
330
2
100
AcDbSymbolTableRecord
100
AcDbLayerTableRecord
2
SERVO
70
0
62
3
6
CONTINUOUS
370
40
390
F
0
LAYER
5
47
330
2
100
AcDbSymbolTableRecord
100
AcDbLayerTableRecord
2
embudo extrude
70
0
62
7
6
CONTINUOUS
370
0
390
F
0
LAYER
5
48
330
2
100
AcDbSymbolTableRecord
100
AcDbLayerTableRecord
2
embudo
70
0
62
4
6
CONTINUOUS
370
50
390
F
0
LAYER
5
49
330
2
100
AcDbSymbolTableRecord
100
AcDbLayerTableRecord
2
container
70
0
62
7
6
CONTINUOUS
370
0
390
F
0
LAYER
5
4A
330
2
100
AcDbSymbolTableRecord
100
AcDbLayerTableRecord
2
splitter
70
0
62
7
6
CONTINUOUS
370
0
390
F
0
LAYER
5
4B
330
2
100
AcDbSymbolTableRecord
100
AcDbLayerTableRecord
2
auger
70
0
62
7
6
CONTINUOUS
370
0
390
F
0
ENDTAB
0
TABLE
2
STYLE
5
3
330
0
100
AcDbSymbolTable
70
3
0
STYLE
5
4C
330
2
100
AcDbSymbolTableRecord
100
AcDbTextStyleTableRecord
2
Standard
70
0
40
0
41
1
50
0
71
0
42
1
3
txt
4

0
ENDTAB
0
TABLE
2
VIEW
5
6
330
0
100
AcDbSymbolTable
70
0
0
ENDTAB
0
TABLE
2
UCS
5
7
330
0
100
AcDbSymbolTable
70
0
0
ENDTAB
0
TABLE
2
APPID
5
9
330
0
100
AcDbSymbolTable
70
1
0
APPID
5
12
330
9
100
AcDbSymbolTableRecord
100
AcDbRegAppTableRecord
2
ACAD
70
0
0
ENDTAB
0
TABLE
2
DIMSTYLE
5
A
330
0
100
AcDbSymbolTable
70
1
100
AcDbDimStyleTable
71
1
0
DIMSTYLE
105
4D
330
A
100
AcDbSymbolTableRecord
100
AcDbDimStyleTableRecord
2
Standard
70
0
40
1
41
2.5
42
0.625
43
0.38
44
1.25
45
0
46
0
47
0
48
0
140
2.5
141
0.09
142
0
143
25.4
144
1
145
0
146
1
147
0.625
148
0
71
0
72
0
73
0
74
1
75
0
76
0
77
0
78
0
79
0
170
0
171
2
172
0
173
0
174
0
175
0
176
0
177
0
178
0
179
0
271
4
272
4
273
2
274
2
275
0
276
0
277
2
278
46
279
0
280
0
281
0
282
0
283
1
284
0
285
0
286
0
288
0
289
3
340
Standard
341

371
-2
372
-2
0
ENDTAB
0
TABLE
2
BLOCK_RECORD
5
1
330
0
100
AcDbSymbolTable
70
2
0
BLOCK_RECORD
5
1F
330
1
100
AcDbSymbolTableRecord
100
AcDbBlockTableRecord
2
*Model_Space
70
0
280
1
281
0
0
BLOCK_RECORD
5
1E
330
1
100
AcDbSymbolTableRecord
100
AcDbBlockTableRecord
2
*Paper_Space
70
0
280
1
281
0
0
BLOCK_RECORD
5
4E
330
1
100
AcDbSymbolTableRecord
100
AcDbBlockTableRecord
2
*D2
70
0
280
1
281
0
0
BLOCK_RECORD
5
51
330
1
100
AcDbSymbolTableRecord
100
AcDbBlockTableRecord
2
*D1
70
0
280
1
281
0
0
BLOCK_RECORD
5
54
330
1
100
AcDbSymbolTableRecord
100
AcDbBlockTableRecord
2
auger-0
70
0
280
1
281
0
0
BLOCK_RECORD
5
57
330
1
100
AcDbSymbolTableRecord
100
AcDbBlockTableRecord
2
auger-1
70
0
280
1
281
0
0
BLOCK_RECORD
5
5A
330
1
100
AcDbSymbolTableRecord
100
AcDbBlockTableRecord
2
auger-2
70
0
280
1
281
0
0
BLOCK_RECORD
5
5D
330
1
100
AcDbSymbolTableRecord
100
AcDbBlockTableRecord
2
auger-3
70
0
280
1
281
0
0
ENDTAB
0
ENDSEC
0
SECTION
2
BLOCKS
0
BLOCK
5
20
330
1F
100
AcDbEntity
8
0
100
AcDbBlockBegin
2
*Model_Space
70
0
10
0
20
0
30
0
3
*Model_Space
1

0
ENDBLK
5
21
330
1F
100
AcDbEntity
8
0
100
AcDbBlockEnd
0
BLOCK
5
1C
330
1B
100
AcDbEntity
8
0
100
AcDbBlockBegin
2
*Paper_Space
70
0
10
0
20
0
30
0
3
*Paper_Space
1

0
ENDBLK
5
1D
330
1F
100
AcDbEntity
8
0
100
AcDbBlockEnd
0
BLOCK
5
4F
330
4E
100
AcDbEntity
8
0
100
AcDbBlockBegin
2
*D2
70
1
10
0
20
0
3
*D2
1

0
LINE
5
60
100
AcDbEntity
8
SERVO
6
CONTINUOUS
62
7
370
0
100
AcDbLine
10
-70.625
20
-7.5
11
-121.25
21
-7.5
0
LINE
5
61
100
AcDbEntity
8
SERVO
6
CONTINUOUS
62
7
370
0
100
AcDbLine
10
-70.625
20
-132.5
11
-121.25
21
-132.5
0
LINE
5
62
100
AcDbEntity
8
SERVO
6
CONTINUOUS
62
7
370
0
100
AcDbLine
10
-120
20
-7.5
11
-120
21
-132.5
0
SOLID
5
63
100
AcDbEntity
8
SERVO
6
CONTINUOUS
62
7
370
0
100
AcDbTrace
10
-120
20
-7.5
30
0
11
-119.583715342
21
-10
31
0
12
-120.416284658
22
-10
32
0
13
-120.416284658
23
-10
33
0
0
SOLID
5
64
100
AcDbEntity
8
SERVO
6
CONTINUOUS
62
7
370
0
100
AcDbTrace
10
-120
20
-132.5
30
0
11
-120.416284658
21
-130
31
0
12
-119.583715342
22
-130
32
0
13
-119.583715342
23
-130
33
0
0
MTEXT
5
65
100
AcDbEntity
8
SERVO
6
CONTINUOUS
62
7
370
0
100
AcDbMText
10
-138.75
20
-70
30
0
40
2.5
41
4.44444444444
71
5
72
1
1
125
7
standard
210
0
220
0
230
1
50
90
73
2
44
1
0
ENDBLK
5
50
330
4E
100
AcDbEntity
8
0
100
AcDbBlockEnd
0
BLOCK
5
52
330
51
100
AcDbEntity
8
0
100
AcDbBlockBegin
2
*D1
70
1
10
0
20
0
3
*D1
1

0
LINE
5
66
100
AcDbEntity
8
splitter
6
CONTINUOUS
62
7
370
0
100
AcDbLine
10
-100.625
20
12.5
11
-206.397186258
21
12.5000000001
0
LINE
5
67
100
AcDbEntity
8
splitter
6
CONTINUOUS
62
7
370
0
100
AcDbLine
10
-100.625
20
-145
11
-206.397186258
21
-145
0
LINE
5
68
100
AcDbEntity
8
splitter
6
CONTINUOUS
62
7
370
0
100
AcDbLine
10
-205.147186258
20
12.5000000001
11
-205.147186258
21
-145
0
SOLID
5
69
100
AcDbEntity
8
splitter
6
CONTINUOUS
62
7
370
0
100
AcDbTrace
10
-205.147186258
20
12.5000000001
30
0
11
-204.7309016
21
10.0000000001
31
0
12
-205.563470915
22
10.0000000001
32
0
13
-205.563470915
23
10.0000000001
33
0
0
SOLID
5
6A
100
AcDbEntity
8
splitter
6
CONTINUOUS
62
7
370
0
100
AcDbTrace
10
-205.147186258
20
-145
30
0
11
-205.563470916
21
-142.5
31
0
12
-204.7309016
22
-142.5
32
0
13
-204.7309016
23
-142.5
33
0
0
MTEXT
5
6B
100
AcDbEntity
8
splitter
6
CONTINUOUS
62
7
370
0
100
AcDbMText
10
-223.897186258
20
-66.25
30
0
40
2.5
41
7.22222222222
71
5
72
1
1
157.5
7
standard
210
0
220
0
230
1
50
90
73
2
44
1
0
ENDBLK
5
53
330
51
100
AcDbEntity
8
0
100
AcDbBlockEnd
0
BLOCK
5
55
330
54
100
AcDbEntity
8
0
100
AcDbBlockBegin
2
auger-0
70
0
10
0
20
0
3
auger-0
1

0
LINE
5
6C
100
AcDbEntity
8
0
6
ByLayer
62
256
370
-1
100
AcDbLine
10
-2
20
-20
11
-2
21
-6.01
0
LINE
5
6D
100
AcDbEntity
8
0
6
ByLayer
62
256
370
-1
100
AcDbLine
10
-2
20
-6.01
11
-1
21
-6.01
0
LINE
5
6E
100
AcDbEntity
8
0
6
ByLayer
62
256
370
-1
100
AcDbLine
10
-1
20
-6.01
11
-1
21
-3
0
LINE
5
6F
100
AcDbEntity
8
0
6
ByLayer
62
256
370
-1
100
AcDbLine
10
-1
20
-3
11
0
21
-3
0
LINE
5
70
100
AcDbEntity
8
0
6
ByLayer
62
256
370
-1
100
AcDbLine
10
0
20
-3
11
0
21
3
0
LINE
5
71
100
AcDbEntity
8
0
6
ByLayer
62
256
370
-1
100
AcDbLine
10
0
20
3
11
-1
21
3
0
LINE
5
72
100
AcDbEntity
8
0
6
ByLayer
62
256
370
-1
100
AcDbLine
10
-1
20
3
11
-1
21
6.01
0
LINE
5
73
100
AcDbEntity
8
0
6
ByLayer
62
256
370
-1
100
AcDbLine
10
-1
20
6.01
11
-2
21
6.01
0
LINE
5
74
100
AcDbEntity
8
0
6
ByLayer
62
256
370
-1
100
AcDbLine
10
-2
20
6.01
11
-2
21
20
0
LINE
5
75
100
AcDbEntity
8
0
6
ByLayer
62
256
370
-1
100
AcDbLine
10
-2
20
20
11
3
21
20
0
LINE
5
76
100
AcDbEntity
8
0
6
ByLayer
62
256
370
-1
100
AcDbLine
10
3
20
20
11
3
21
4
0
LINE
5
77
100
AcDbEntity
8
0
6
ByLayer
62
256
370
-1
100
AcDbLine
10
3
20
4
11
17.363
21
4
0
LINE
5
78
100
AcDbEntity
8
0
6
ByLayer
62
256
370
-1
100
AcDbLine
10
17.363
20
4
11
20.373
21
19.264
0
LINE
5
79
100
AcDbEntity
8
0
6
ByLayer
62
256
370
-1
100
AcDbLine
10
20.373
20
19.264
11
21.39
21
19.264
0
LINE
5
7A
100
AcDbEntity
8
0
6
ByLayer
62
256
370
-1
100
AcDbLine
10
21.39
20
19.264
11
24.4
21
4
0
LINE
5
7B
100
AcDbEntity
8
0
6
ByLayer
62
256
370
-1
100
AcDbLine
10
24.4
20
4
11
40.363
21
4
0
LINE
5
7C
100
AcDbEntity
8
0
6
ByLayer
62
256
370
-1
100
AcDbLine
10
40.363
20
4
11
43.373
21
19.264
0
LINE
5
7D
100
AcDbEntity
8
0
6
ByLayer
62
256
370
-1
100
AcDbLine
10
43.373
20
19.264
11
44.39
21
19.264
0
LINE
5
7E
100
AcDbEntity
8
0
6
ByLayer
62
256
370
-1
100
AcDbLine
10
44.39
20
19.264
11
47.4
21
4
0
LINE
5
7F
100
AcDbEntity
8
0
6
ByLayer
62
256
370
-1
100
AcDbLine
10
47.4
20
4
11
63.363
21
4
0
LINE
5
80
100
AcDbEntity
8
0
6
ByLayer
62
256
370
-1
100
AcDbLine
10
63.363
20
4
11
66.373
21
19.264
0
LINE
5
81
100
AcDbEntity
8
0
6
ByLayer
62
256
370
-1
100
AcDbLine
10
66.373
20
19.264
11
67.39
21
19.264
0
LINE
5
82
100
AcDbEntity
8
0
6
ByLayer
62
256
370
-1
100
AcDbLine
10
67.39
20
19.264
11
70.4
21
4
0
LINE
5
83
100
AcDbEntity
8
0
6
ByLayer
62
256
370
-1
100
AcDbLine
10
70.4
20
4
11
86.363
21
4
0
LINE
5
84
100
AcDbEntity
8
0
6
ByLayer
62
256
370
-1
100
AcDbLine
10
86.363
20
4
11
89.373
21
19.264
0
LINE
5
85
100
AcDbEntity
8
0
6
ByLayer
62
256
370
-1
100
AcDbLine
10
89.373
20
19.264
11
90.39
21
19.264
0
LINE
5
86
100
AcDbEntity
8
0
6
ByLayer
62
256
370
-1
100
AcDbLine
10
90.39
20
19.264
11
93.4
21
4
0
LINE
5
87
100
AcDbEntity
8
0
6
ByLayer
62
256
370
-1
100
AcDbLine
10
93.4
20
4
11
109.363
21
4
0
LINE
5
88
100
AcDbEntity
8
0
6
ByLayer
62
256
370
-1
100
AcDbLine
10
109.363
20
4
11
112.373
21
19.264
0
LINE
5
89
100
AcDbEntity
8
0
6
ByLayer
62
256
370
-1
100
AcDbLine
10
112.373
20
19.264
11
113.39
21
19.264
0
LINE
5
8A
100
AcDbEntity
8
0
6
ByLayer
62
256
370
-1
100
AcDbLine
10
113.39
20
19.264
11
116.4
21
4
0
LINE
5
8B
100
AcDbEntity
8
0
6
ByLayer
62
256
370
-1
100
AcDbLine
10
116.4
20
4
11
155
21
4
0
LINE
5
8C
100
AcDbEntity
8
0
6
ByLayer
62
256
370
-1
100
AcDbLine
10
155
20
4
11
155
21
-4
0
LINE
5
8D
100
AcDbEntity
8
0
6
ByLayer
62
256
370
-1
100
AcDbLine
10
155
20
-4
11
127.9
21
-4
0
LINE
5
8E
100
AcDbEntity
8
0
6
ByLayer
62
256
370
-1
100
AcDbLine
10
127.9
20
-4
11
124.89
21
-19.264
0
LINE
5
8F
100
AcDbEntity
8
0
6
ByLayer
62
256
370
-1
100
AcDbLine
10
124.89
20
-19.264
11
123.873
21
-19.264
0
LINE
5
90
100
AcDbEntity
8
0
6
ByLayer
62
256
370
-1
100
AcDbLine
10
123.873
20
-19.264
11
120.863
21
-4
0
LINE
5
91
100
AcDbEntity
8
0
6
ByLayer
62
256
370
-1
100
AcDbLine
10
120.863
20
-4
11
104.9
21
-4
0
LINE
5
92
100
AcDbEntity
8
0
6
ByLayer
62
256
370
-1
100
AcDbLine
10
104.9
20
-4
11
101.89
21
-19.264
0
LINE
5
93
100
AcDbEntity
8
0
6
ByLayer
62
256
370
-1
100
AcDbLine
10
101.89
20
-19.264
11
100.873
21
-19.264
0
LINE
5
94
100
AcDbEntity
8
0
6
ByLayer
62
256
370
-1
100
AcDbLine
10
100.873
20
-19.264
11
97.863
21
-4
0
LINE
5
95
100
AcDbEntity
8
0
6
ByLayer
62
256
370
-1
100
AcDbLine
10
97.863
20
-4
11
81.9
21
-4
0
LINE
5
96
100
AcDbEntity
8
0
6
ByLayer
62
256
370
-1
100
AcDbLine
10
81.9
20
-4
11
78.89
21
-19.264
0
LINE
5
97
100
AcDbEntity
8
0
6
ByLayer
62
256
370
-1
100
AcDbLine
10
78.89
20
-19.264
11
77.873
21
-19.264
0
LINE
5
98
100
AcDbEntity
8
0
6
ByLayer
62
256
370
-1
100
AcDbLine
10
77.873
20
-19.264
11
74.863
21
-4
0
LINE
5
99
100
AcDbEntity
8
0
6
ByLayer
62
256
370
-1
100
AcDbLine
10
74.863
20
-4
11
58.9
21
-4
0
LINE
5
9A
100
AcDbEntity
8
0
6
ByLayer
62
256
370
-1
100
AcDbLine
10
58.9
20
-4
11
55.89
21
-19.264
0
LINE
5
9B
100
AcDbEntity
8
0
6
ByLayer
62
256
370
-1
100
AcDbLine
10
55.89
20
-19.264
11
54.873
21
-19.264
0
LINE
5
9C
100
AcDbEntity
8
0
6
ByLayer
62
256
370
-1
100
AcDbLine
10
54.873
20
-19.264
11
51.863
21
-4
0
LINE
5
9D
100
AcDbEntity
8
0
6
ByLayer
62
256
370
-1
100
AcDbLine
10
51.863
20
-4
11
35.9
21
-4
0
LINE
5
9E
100
AcDbEntity
8
0
6
ByLayer
62
256
370
-1
100
AcDbLine
10
35.9
20
-4
11
32.89
21
-19.264
0
LINE
5
9F
100
AcDbEntity
8
0
6
ByLayer
62
256
370
-1
100
AcDbLine
10
32.89
20
-19.264
11
31.873
21
-19.264
0
LINE
5
A0
100
AcDbEntity
8
0
6
ByLayer
62
256
370
-1
100
AcDbLine
10
31.873
20
-19.264
11
28.863
21
-4
0
LINE
5
A1
100
AcDbEntity
8
0
6
ByLayer
62
256
370
-1
100
AcDbLine
10
28.863
20
-4
11
12.868
21
-4
0
LINE
5
A2
100
AcDbEntity
8
0
6
ByLayer
62
256
370
-1
100
AcDbLine
10
12.868
20
-4
11
9.86
21
-18.658
0
LINE
5
A3
100
AcDbEntity
8
0
6
ByLayer
62
256
370
-1
100
AcDbLine
10
9.86
20
-18.658
11
8.878
21
-18.658
0
LINE
5
A4
100
AcDbEntity
8
0
6
ByLayer
62
256
370
-1
100
AcDbLine
10
8.878
20
-18.658
11
6.08
21
-4
0
LINE
5
A5
100
AcDbEntity
8
0
6
ByLayer
62
256
370
-1
100
AcDbLine
10
6.08
20
-4
11
3
21
-4
0
LINE
5
A6
100
AcDbEntity
8
0
6
ByLayer
62
256
370
-1
100
AcDbLine
10
3
20
-4
11
3
21
-20
0
LINE
5
A7
100
AcDbEntity
8
0
6
ByLayer
62
256
370
-1
100
AcDbLine
10
3
20
-20
11
-2
21
-20
0
ENDBLK
5
56
330
54
100
AcDbEntity
8
0
100
AcDbBlockEnd
0
BLOCK
5
58
330
57
100
AcDbEntity
8
0
100
AcDbBlockBegin
2
auger-1
70
0
10
0
20
0
3
auger-1
1

0
LINE
5
A8
100
AcDbEntity
8
0
6
ByLayer
62
256
370
-1
100
AcDbLine
10
-2
20
-20
11
-2
21
-6.01
0
LINE
5
A9
100
AcDbEntity
8
0
6
ByLayer
62
256
370
-1
100
AcDbLine
10
-2
20
-6.01
11
-1
21
-6.01
0
LINE
5
AA
100
AcDbEntity
8
0
6
ByLayer
62
256
370
-1
100
AcDbLine
10
-1
20
-6.01
11
-1
21
-3
0
LINE
5
AB
100
AcDbEntity
8
0
6
ByLayer
62
256
370
-1
100
AcDbLine
10
-1
20
-3
11
0
21
-3
0
LINE
5
AC
100
AcDbEntity
8
0
6
ByLayer
62
256
370
-1
100
AcDbLine
10
0
20
-3
11
0
21
3
0
LINE
5
AD
100
AcDbEntity
8
0
6
ByLayer
62
256
370
-1
100
AcDbLine
10
0
20
3
11
-1
21
3
0
LINE
5
AE
100
AcDbEntity
8
0
6
ByLayer
62
256
370
-1
100
AcDbLine
10
-1
20
3
11
-1
21
6.01
0
LINE
5
AF
100
AcDbEntity
8
0
6
ByLayer
62
256
370
-1
100
AcDbLine
10
-1
20
6.01
11
-2
21
6.01
0
LINE
5
B0
100
AcDbEntity
8
0
6
ByLayer
62
256
370
-1
100
AcDbLine
10
-2
20
6.01
11
-2
21
20
0
LINE
5
B1
100
AcDbEntity
8
0
6
ByLayer
62
256
370
-1
100
AcDbLine
10
-2
20
20
11
3
21
20
0
LINE
5
B2
100
AcDbEntity
8
0
6
ByLayer
62
256
370
-1
100
AcDbLine
10
3
20
20
11
3
21
4
0
LINE
5
B3
100
AcDbEntity
8
0
6
ByLayer
62
256
370
-1
100
AcDbLine
10
3
20
4
11
17.363
21
4
0
LINE
5
B4
100
AcDbEntity
8
0
6
ByLayer
62
256
370
-1
100
AcDbLine
10
17.363
20
4
11
20.373
21
19.264
0
LINE
5
B5
100
AcDbEntity
8
0
6
ByLayer
62
256
370
-1
100
AcDbLine
10
20.373
20
19.264
11
21.39
21
19.264
0
LINE
5
B6
100
AcDbEntity
8
0
6
ByLayer
62
256
370
-1
100
AcDbLine
10
21.39
20
19.264
11
24.4
21
4
0
LINE
5
B7
100
AcDbEntity
8
0
6
ByLayer
62
256
370
-1
100
AcDbLine
10
24.4
20
4
11
40.363
21
4
0
LINE
5
B8
100
AcDbEntity
8
0
6
ByLayer
62
256
370
-1
100
AcDbLine
10
40.363
20
4
11
43.373
21
19.264
0
LINE
5
B9
100
AcDbEntity
8
0
6
ByLayer
62
256
370
-1
100
AcDbLine
10
43.373
20
19.264
11
44.39
21
19.264
0
LINE
5
BA
100
AcDbEntity
8
0
6
ByLayer
62
256
370
-1
100
AcDbLine
10
44.39
20
19.264
11
47.4
21
4
0
LINE
5
BB
100
AcDbEntity
8
0
6
ByLayer
62
256
370
-1
100
AcDbLine
10
47.4
20
4
11
63.363
21
4
0
LINE
5
BC
100
AcDbEntity
8
0
6
ByLayer
62
256
370
-1
100
AcDbLine
10
63.363
20
4
11
66.373
21
19.264
0
LINE
5
BD
100
AcDbEntity
8
0
6
ByLayer
62
256
370
-1
100
AcDbLine
10
66.373
20
19.264
11
67.39
21
19.264
0
LINE
5
BE
100
AcDbEntity
8
0
6
ByLayer
62
256
370
-1
100
AcDbLine
10
67.39
20
19.264
11
70.4
21
4
0
LINE
5
BF
100
AcDbEntity
8
0
6
ByLayer
62
256
370
-1
100
AcDbLine
10
70.4
20
4
11
86.363
21
4
0
LINE
5
C0
100
AcDbEntity
8
0
6
ByLayer
62
256
370
-1
100
AcDbLine
10
86.363
20
4
11
89.373
21
19.264
0
LINE
5
C1
100
AcDbEntity
8
0
6
ByLayer
62
256
370
-1
100
AcDbLine
10
89.373
20
19.264
11
90.39
21
19.264
0
LINE
5
C2
100
AcDbEntity
8
0
6
ByLayer
62
256
370
-1
100
AcDbLine
10
90.39
20
19.264
11
93.4
21
4
0
LINE
5
C3
100
AcDbEntity
8
0
6
ByLayer
62
256
370
-1
100
AcDbLine
10
93.4
20
4
11
125
21
4
0
LINE
5
C4
100
AcDbEntity
8
0
6
ByLayer
62
256
370
-1
100
AcDbLine
10
125
20
4
11
125
21
-4
0
LINE
5
C5
100
AcDbEntity
8
0
6
ByLayer
62
256
370
-1
100
AcDbLine
10
125
20
-4
11
103.755
21
-4
0
LINE
5
C6
100
AcDbEntity
8
0
6
ByLayer
62
256
370
-1
100
AcDbLine
10
103.755
20
-4
11
101.785
21
-14.575
0
LINE
5
C7
100
AcDbEntity
8
0
6
ByLayer
62
256
370
-1
100
AcDbLine
10
101.785
20
-14.575
11
101.039
21
-14.575
0
LINE
5
C8
100
AcDbEntity
8
0
6
ByLayer
62
256
370
-1
100
AcDbLine
10
101.039
20
-14.575
11
98.674
21
-4
0
LINE
5
C9
100
AcDbEntity
8
0
6
ByLayer
62
256
370
-1
100
AcDbLine
10
98.674
20
-4
11
81.9
21
-4
0
LINE
5
CA
100
AcDbEntity
8
0
6
ByLayer
62
256
370
-1
100
AcDbLine
10
81.9
20
-4
11
78.89
21
-19.264
0
LINE
5
CB
100
AcDbEntity
8
0
6
ByLayer
62
256
370
-1
100
AcDbLine
10
78.89
20
-19.264
11
77.873
21
-19.264
0
LINE
5
CC
100
AcDbEntity
8
0
6
ByLayer
62
256
370
-1
100
AcDbLine
10
77.873
20
-19.264
11
74.863
21
-4
0
LINE
5
CD
100
AcDbEntity
8
0
6
ByLayer
62
256
370
-1
100
AcDbLine
10
74.863
20
-4
11
58.9
21
-4
0
LINE
5
CE
100
AcDbEntity
8
0
6
ByLayer
62
256
370
-1
100
AcDbLine
10
58.9
20
-4
11
55.89
21
-19.264
0
LINE
5
CF
100
AcDbEntity
8
0
6
ByLayer
62
256
370
-1
100
AcDbLine
10
55.89
20
-19.264
11
54.873
21
-19.264
0
LINE
5
D0
100
AcDbEntity
8
0
6
ByLayer
62
256
370
-1
100
AcDbLine
10
54.873
20
-19.264
11
51.863
21
-4
0
LINE
5
D1
100
AcDbEntity
8
0
6
ByLayer
62
256
370
-1
100
AcDbLine
10
51.863
20
-4
11
35.9
21
-4
0
LINE
5
D2
100
AcDbEntity
8
0
6
ByLayer
62
256
370
-1
100
AcDbLine
10
35.9
20
-4
11
32.89
21
-19.264
0
LINE
5
D3
100
AcDbEntity
8
0
6
ByLayer
62
256
370
-1
100
AcDbLine
10
32.89
20
-19.264
11
31.873
21
-19.264
0
LINE
5
D4
100
AcDbEntity
8
0
6
ByLayer
62
256
370
-1
100
AcDbLine
10
31.873
20
-19.264
11
28.863
21
-4
0
LINE
5
D5
100
AcDbEntity
8
0
6
ByLayer
62
256
370
-1
100
AcDbLine
10
28.863
20
-4
11
12.868
21
-4
0
LINE
5
D6
100
AcDbEntity
8
0
6
ByLayer
62
256
370
-1
100
AcDbLine
10
12.868
20
-4
11
9.86
21
-18.658
0
LINE
5
D7
100
AcDbEntity
8
0
6
ByLayer
62
256
370
-1
100
AcDbLine
10
9.86
20
-18.658
11
8.878
21
-18.658
0
LINE
5
D8
100
AcDbEntity
8
0
6
ByLayer
62
256
370
-1
100
AcDbLine
10
8.878
20
-18.658
11
6.08
21
-4
0
LINE
5
D9
100
AcDbEntity
8
0
6
ByLayer
62
256
370
-1
100
AcDbLine
10
6.08
20
-4
11
3
21
-4
0
LINE
5
DA
100
AcDbEntity
8
0
6
ByLayer
62
256
370
-1
100
AcDbLine
10
3
20
-4
11
3
21
-20
0
LINE
5
DB
100
AcDbEntity
8
0
6
ByLayer
62
256
370
-1
100
AcDbLine
10
3
20
-20
11
-2
21
-20
0
ENDBLK
5
59
330
57
100
AcDbEntity
8
0
100
AcDbBlockEnd
0
BLOCK
5
5B
330
5A
100
AcDbEntity
8
0
100
AcDbBlockBegin
2
auger-2
70
0
10
0
20
0
3
auger-2
1

0
LINE
5
DC
100
AcDbEntity
8
0
6
ByLayer
62
256
370
-1
100
AcDbLine
10
-2
20
-20
11
-2
21
-6.01
0
LINE
5
DD
100
AcDbEntity
8
0
6
ByLayer
62
256
370
-1
100
AcDbLine
10
-2
20
-6.01
11
-1
21
-6.01
0
LINE
5
DE
100
AcDbEntity
8
0
6
ByLayer
62
256
370
-1
100
AcDbLine
10
-1
20
-6.01
11
-1
21
-3
0
LINE
5
DF
100
AcDbEntity
8
0
6
ByLayer
62
256
370
-1
100
AcDbLine
10
-1
20
-3
11
0
21
-3
0
LINE
5
E0
100
AcDbEntity
8
0
6
ByLayer
62
256
370
-1
100
AcDbLine
10
0
20
-3
11
0
21
3
0
LINE
5
E1
100
AcDbEntity
8
0
6
ByLayer
62
256
370
-1
100
AcDbLine
10
0
20
3
11
-1
21
3
0
LINE
5
E2
100
AcDbEntity
8
0
6
ByLayer
62
256
370
-1
100
AcDbLine
10
-1
20
3
11
-1
21
6.01
0
LINE
5
E3
100
AcDbEntity
8
0
6
ByLayer
62
256
370
-1
100
AcDbLine
10
-1
20
6.01
11
-2
21
6.01
0
LINE
5
E4
100
AcDbEntity
8
0
6
ByLayer
62
256
370
-1
100
AcDbLine
10
-2
20
6.01
11
-2
21
20
0
LINE
5
E5
100
AcDbEntity
8
0
6
ByLayer
62
256
370
-1
100
AcDbLine
10
-2
20
20
11
3
21
20
0
LINE
5
E6
100
AcDbEntity
8
0
6
ByLayer
62
256
370
-1
100
AcDbLine
10
3
20
20
11
3
21
4
0
LINE
5
E7
100
AcDbEntity
8
0
6
ByLayer
62
256
370
-1
100
AcDbLine
10
3
20
4
11
18.372
21
4
0
LINE
5
E8
100
AcDbEntity
8
0
6
ByLayer
62
256
370
-1
100
AcDbLine
10
18.372
20
4
11
18.371
21
4.11
0
LINE
5
E9
100
AcDbEntity
8
0
6
ByLayer
62
256
370
-1
100
AcDbLine
10
18.371
20
4.11
11
21.701
21
21.039
0
LINE
5
EA
100
AcDbEntity
8
0
6
ByLayer
62
256
370
-1
100
AcDbLine
10
21.701
20
21.039
11
22.785
21
21.039
0
LINE
5
EB
100
AcDbEntity
8
0
6
ByLayer
62
256
370
-1
100
AcDbLine
10
22.785
20
21.039
11
26.115
21
4.11
0
LINE
5
EC
100
AcDbEntity
8
0
6
ByLayer
62
256
370
-1
100
AcDbLine
10
26.115
20
4.11
11
26.115
21
4
0
LINE
5
ED
100
AcDbEntity
8
0
6
ByLayer
62
256
370
-1
100
AcDbLine
10
26.115
20
4
11
42.872
21
4
0
LINE
5
EE
100
AcDbEntity
8
0
6
ByLayer
62
256
370
-1
100
AcDbLine
10
42.872
20
4
11
42.871
21
4.11
0
LINE
5
EF
100
AcDbEntity
8
0
6
ByLayer
62
256
370
-1
100
AcDbLine
10
42.871
20
4.11
11
46.201
21
21.039
0
LINE
5
F0
100
AcDbEntity
8
0
6
ByLayer
62
256
370
-1
100
AcDbLine
10
46.201
20
21.039
11
47.285
21
21.039
0
LINE
5
F1
100
AcDbEntity
8
0
6
ByLayer
62
256
370
-1
100
AcDbLine
10
47.285
20
21.039
11
50.615
21
4.11
0
LINE
5
F2
100
AcDbEntity
8
0
6
ByLayer
62
256
370
-1
100
AcDbLine
10
50.615
20
4.11
11
50.615
21
4
0
LINE
5
F3
100
AcDbEntity
8
0
6
ByLayer
62
256
370
-1
100
AcDbLine
10
50.615
20
4
11
67.372
21
4
0
LINE
5
F4
100
AcDbEntity
8
0
6
ByLayer
62
256
370
-1
100
AcDbLine
10
67.372
20
4
11
67.371
21
4.11
0
LINE
5
F5
100
AcDbEntity
8
0
6
ByLayer
62
256
370
-1
100
AcDbLine
10
67.371
20
4.11
11
70.701
21
21.039
0
LINE
5
F6
100
AcDbEntity
8
0
6
ByLayer
62
256
370
-1
100
AcDbLine
10
70.701
20
21.039
11
71.785
21
21.039
0
LINE
5
F7
100
AcDbEntity
8
0
6
ByLayer
62
256
370
-1
100
AcDbLine
10
71.785
20
21.039
11
75.115
21
4.11
0
LINE
5
F8
100
AcDbEntity
8
0
6
ByLayer
62
256
370
-1
100
AcDbLine
10
75.115
20
4.11
11
75.115
21
4
0
LINE
5
F9
100
AcDbEntity
8
0
6
ByLayer
62
256
370
-1
100
AcDbLine
10
75.115
20
4
11
91.872
21
4
0
LINE
5
FA
100
AcDbEntity
8
0
6
ByLayer
62
256
370
-1
100
AcDbLine
10
91.872
20
4
11
91.871
21
4.11
0
LINE
5
FB
100
AcDbEntity
8
0
6
ByLayer
62
256
370
-1
100
AcDbLine
10
91.871
20
4.11
11
95.201
21
21.039
0
LINE
5
FC
100
AcDbEntity
8
0
6
ByLayer
62
256
370
-1
100
AcDbLine
10
95.201
20
21.039
11
96.285
21
21.039
0
LINE
5
FD
100
AcDbEntity
8
0
6
ByLayer
62
256
370
-1
100
AcDbLine
10
96.285
20
21.039
11
99.615
21
4.11
0
LINE
5
FE
100
AcDbEntity
8
0
6
ByLayer
62
256
370
-1
100
AcDbLine
10
99.615
20
4.11
11
99.615
21
4
0
LINE
5
FF
100
AcDbEntity
8
0
6
ByLayer
62
256
370
-1
100
AcDbLine
10
99.615
20
4
11
125
21
4
0
LINE
5
100
100
AcDbEntity
8
0
6
ByLayer
62
256
370
-1
100
AcDbLine
10
125
20
4
11
125
21
-4
0
LINE
5
101
100
AcDbEntity
8
0
6
ByLayer
62
256
370
-1
100
AcDbLine
10
125
20
-4
11
87.365
21
-4
0
LINE
5
102
100
AcDbEntity
8
0
6
ByLayer
62
256
370
-1
100
AcDbLine
10
87.365
20
-4
11
87.365
21
-4.11
0
LINE
5
103
100
AcDbEntity
8
0
6
ByLayer
62
256
370
-1
100
AcDbLine
10
87.365
20
-4.11
11
84.035
21
-21.039
0
LINE
5
104
100
AcDbEntity
8
0
6
ByLayer
62
256
370
-1
100
AcDbLine
10
84.035
20
-21.039
11
82.951
21
-21.039
0
LINE
5
105
100
AcDbEntity
8
0
6
ByLayer
62
256
370
-1
100
AcDbLine
10
82.951
20
-21.039
11
79.621
21
-4.11
0
LINE
5
106
100
AcDbEntity
8
0
6
ByLayer
62
256
370
-1
100
AcDbLine
10
79.621
20
-4.11
11
79.622
21
-4
0
LINE
5
107
100
AcDbEntity
8
0
6
ByLayer
62
256
370
-1
100
AcDbLine
10
79.622
20
-4
11
62.865
21
-4
0
LINE
5
108
100
AcDbEntity
8
0
6
ByLayer
62
256
370
-1
100
AcDbLine
10
62.865
20
-4
11
62.865
21
-4.11
0
LINE
5
109
100
AcDbEntity
8
0
6
ByLayer
62
256
370
-1
100
AcDbLine
10
62.865
20
-4.11
11
59.535
21
-21.039
0
LINE
5
10A
100
AcDbEntity
8
0
6
ByLayer
62
256
370
-1
100
AcDbLine
10
59.535
20
-21.039
11
58.451
21
-21.039
0
LINE
5
10B
100
AcDbEntity
8
0
6
ByLayer
62
256
370
-1
100
AcDbLine
10
58.451
20
-21.039
11
55.121
21
-4.11
0
LINE
5
10C
100
AcDbEntity
8
0
6
ByLayer
62
256
370
-1
100
AcDbLine
10
55.121
20
-4.11
11
55.122
21
-4
0
LINE
5
10D
100
AcDbEntity
8
0
6
ByLayer
62
256
370
-1
100
AcDbLine
10
55.122
20
-4
11
38.365
21
-4
0
LINE
5
10E
100
AcDbEntity
8
0
6
ByLayer
62
256
370
-1
100
AcDbLine
10
38.365
20
-4
11
38.365
21
-4.11
0
LINE
5
10F
100
AcDbEntity
8
0
6
ByLayer
62
256
370
-1
100
AcDbLine
10
38.365
20
-4.11
11
35.035
21
-21.039
0
LINE
5
110
100
AcDbEntity
8
0
6
ByLayer
62
256
370
-1
100
AcDbLine
10
35.035
20
-21.039
11
33.951
21
-21.039
0
LINE
5
111
100
AcDbEntity
8
0
6
ByLayer
62
256
370
-1
100
AcDbLine
10
33.951
20
-21.039
11
30.621
21
-4.11
0
LINE
5
112
100
AcDbEntity
8
0
6
ByLayer
62
256
370
-1
100
AcDbLine
10
30.621
20
-4.11
11
30.622
21
-4
0
LINE
5
113
100
AcDbEntity
8
0
6
ByLayer
62
256
370
-1
100
AcDbLine
10
30.622
20
-4
11
13.833
21
-4
0
LINE
5
114
100
AcDbEntity
8
0
6
ByLayer
62
256
370
-1
100
AcDbLine
10
13.833
20
-4
11
13.838
21
-4.085
0
LINE
5
115
100
AcDbEntity
8
0
6
ByLayer
62
256
370
-1
100
AcDbLine
10
13.838
20
-4.085
11
10.504
21
-20.395
0
LINE
5
116
100
AcDbEntity
8
0
6
ByLayer
62
256
370
-1
100
AcDbLine
10
10.504
20
-20.395
11
9.458
21
-20.395
0
LINE
5
117
100
AcDbEntity
8
0
6
ByLayer
62
256
370
-1
100
AcDbLine
10
9.458
20
-20.395
11
6.354
21
-4.11
0
LINE
5
118
100
AcDbEntity
8
0
6
ByLayer
62
256
370
-1
100
AcDbLine
10
6.354
20
-4.11
11
6.348
21
-4
0
LINE
5
119
100
AcDbEntity
8
0
6
ByLayer
62
256
370
-1
100
AcDbLine
10
6.348
20
-4
11
3
21
-4
0
LINE
5
11A
100
AcDbEntity
8
0
6
ByLayer
62
256
370
-1
100
AcDbLine
10
3
20
-4
11
3
21
-20
0
LINE
5
11B
100
AcDbEntity
8
0
6
ByLayer
62
256
370
-1
100
AcDbLine
10
3
20
-20
11
-2
21
-20
0
ENDBLK
5
5C
330
5A
100
AcDbEntity
8
0
100
AcDbBlockEnd
0
BLOCK
5
5E
330
5D
100
AcDbEntity
8
0
100
AcDbBlockBegin
2
auger-3
70
0
10
0
20
0
3
auger-3
1

0
LINE
5
11C
100
AcDbEntity
8
0
6
ByLayer
62
256
370
-1
100
AcDbLine
10
-2
20
-20
11
-2
21
-6.01
0
LINE
5
11D
100
AcDbEntity
8
0
6
ByLayer
62
256
370
-1
100
AcDbLine
10
-2
20
-6.01
11
-1
21
-6.01
0
LINE
5
11E
100
AcDbEntity
8
0
6
ByLayer
62
256
370
-1
100
AcDbLine
10
-1
20
-6.01
11
-1
21
-3
0
LINE
5
11F
100
AcDbEntity
8
0
6
ByLayer
62
256
370
-1
100
AcDbLine
10
-1
20
-3
11
0
21
-3
0
LINE
5
120
100
AcDbEntity
8
0
6
ByLayer
62
256
370
-1
100
AcDbLine
10
0
20
-3
11
0
21
3
0
LINE
5
121
100
AcDbEntity
8
0
6
ByLayer
62
256
370
-1
100
AcDbLine
10
0
20
3
11
-1
21
3
0
LINE
5
122
100
AcDbEntity
8
0
6
ByLayer
62
256
370
-1
100
AcDbLine
10
-1
20
3
11
-1
21
6.01
0
LINE
5
123
100
AcDbEntity
8
0
6
ByLayer
62
256
370
-1
100
AcDbLine
10
-1
20
6.01
11
-2
21
6.01
0
LINE
5
124
100
AcDbEntity
8
0
6
ByLayer
62
256
370
-1
100
AcDbLine
10
-2
20
6.01
11
-2
21
20
0
LINE
5
125
100
AcDbEntity
8
0
6
ByLayer
62
256
370
-1
100
AcDbLine
10
-2
20
20
11
3
21
20
0
LINE
5
126
100
AcDbEntity
8
0
6
ByLayer
62
256
370
-1
100
AcDbLine
10
3
20
20
11
3
21
4
0
LINE
5
127
100
AcDbEntity
8
0
6
ByLayer
62
256
370
-1
100
AcDbLine
10
3
20
4
11
19.531
21
4
0
LINE
5
128
100
AcDbEntity
8
0
6
ByLayer
62
256
370
-1
100
AcDbLine
10
19.531
20
4
11
19.563
21
5.152
0
LINE
5
129
100
AcDbEntity
8
0
6
ByLayer
62
256
370
-1
100
AcDbLine
10
19.563
20
5.152
11
23.03
21
22.814
0
LINE
5
12A
100
AcDbEntity
8
0
6
ByLayer
62
256
370
-1
100
AcDbLine
10
23.03
20
22.814
11
24.18
21
22.814
0
LINE
5
12B
100
AcDbEntity
8
0
6
ByLayer
62
256
370
-1
100
AcDbLine
10
24.18
20
22.814
11
27.647
21
5.152
0
LINE
5
12C
100
AcDbEntity
8
0
6
ByLayer
62
256
370
-1
100
AcDbLine
10
27.647
20
5.152
11
27.679
21
4
0
LINE
5
12D
100
AcDbEntity
8
0
6
ByLayer
62
256
370
-1
100
AcDbLine
10
27.679
20
4
11
45.531
21
4
0
LINE
5
12E
100
AcDbEntity
8
0
6
ByLayer
62
256
370
-1
100
AcDbLine
10
45.531
20
4
11
45.563
21
5.152
0
LINE
5
12F
100
AcDbEntity
8
0
6
ByLayer
62
256
370
-1
100
AcDbLine
10
45.563
20
5.152
11
49.03
21
22.814
0
LINE
5
130
100
AcDbEntity
8
0
6
ByLayer
62
256
370
-1
100
AcDbLine
10
49.03
20
22.814
11
50.18
21
22.814
0
LINE
5
131
100
AcDbEntity
8
0
6
ByLayer
62
256
370
-1
100
AcDbLine
10
50.18
20
22.814
11
53.647
21
5.152
0
LINE
5
132
100
AcDbEntity
8
0
6
ByLayer
62
256
370
-1
100
AcDbLine
10
53.647
20
5.152
11
53.679
21
4
0
LINE
5
133
100
AcDbEntity
8
0
6
ByLayer
62
256
370
-1
100
AcDbLine
10
53.679
20
4
11
71.531
21
4
0
LINE
5
134
100
AcDbEntity
8
0
6
ByLayer
62
256
370
-1
100
AcDbLine
10
71.531
20
4
11
71.563
21
5.152
0
LINE
5
135
100
AcDbEntity
8
0
6
ByLayer
62
256
370
-1
100
AcDbLine
10
71.563
20
5.152
11
75.03
21
22.814
0
LINE
5
136
100
AcDbEntity
8
0
6
ByLayer
62
256
370
-1
100
AcDbLine
10
75.03
20
22.814
11
76.18
21
22.814
0
LINE
5
137
100
AcDbEntity
8
0
6
ByLayer
62
256
370
-1
100
AcDbLine
10
76.18
20
22.814
11
79.647
21
5.152
0
LINE
5
138
100
AcDbEntity
8
0
6
ByLayer
62
256
370
-1
100
AcDbLine
10
79.647
20
5.152
11
79.679
21
4
0
LINE
5
139
100
AcDbEntity
8
0
6
ByLayer
62
256
370
-1
100
AcDbLine
10
79.679
20
4
11
100.603
21
4
0
LINE
5
13A
100
AcDbEntity
8
0
6
ByLayer
62
256
370
-1
100
AcDbLine
10
100.603
20
4
11
101.556
21
7.264
0
LINE
5
13B
100
AcDbEntity
8
0
6
ByLayer
62
256
370
-1
100
AcDbLine
10
101.556
20
7.264
11
101.808
21
7.264
0
LINE
5
13C
100
AcDbEntity
8
0
6
ByLayer
62
256
370
-1
100
AcDbLine
10
101.808
20
7.264
11
102.373
21
4.37
0
LINE
5
13D
100
AcDbEntity
8
0
6
ByLayer
62
256
370
-1
100
AcDbLine
10
102.373
20
4.37
11
102.418
21
4
0
LINE
5
13E
100
AcDbEntity
8
0
6
ByLayer
62
256
370
-1
100
AcDbLine
10
102.418
20
4
11
125
21
4
0
LINE
5
13F
100
AcDbEntity
8
0
6
ByLayer
62
256
370
-1
100
AcDbLine
10
125
20
4
11
125
21
-4
0
LINE
5
140
100
AcDbEntity
8
0
6
ByLayer
62
256
370
-1
100
AcDbLine
10
125
20
-4
11
92.679
21
-4
0
LINE
5
141
100
AcDbEntity
8
0
6
ByLayer
62
256
370
-1
100
AcDbLine
10
92.679
20
-4
11
92.647
21
-5.152
0
LINE
5
142
100
AcDbEntity
8
0
6
ByLayer
62
256
370
-1
100
AcDbLine
10
92.647
20
-5.152
11
89.18
21
-22.814
0
LINE
5
143
100
AcDbEntity
8
0
6
ByLayer
62
256
370
-1
100
AcDbLine
10
89.18
20
-22.814
11
88.03
21
-22.814
0
LINE
5
144
100
AcDbEntity
8
0
6
ByLayer
62
256
370
-1
100
AcDbLine
10
88.03
20
-22.814
11
84.563
21
-5.152
0
LINE
5
145
100
AcDbEntity
8
0
6
ByLayer
62
256
370
-1
100
AcDbLine
10
84.563
20
-5.152
11
84.531
21
-4
0
LINE
5
146
100
AcDbEntity
8
0
6
ByLayer
62
256
370
-1
100
AcDbLine
10
84.531
20
-4
11
66.679
21
-4
0
LINE
5
147
100
AcDbEntity
8
0
6
ByLayer
62
256
370
-1
100
AcDbLine
10
66.679
20
-4
11
66.647
21
-5.152
0
LINE
5
148
100
AcDbEntity
8
0
6
ByLayer
62
256
370
-1
100
AcDbLine
10
66.647
20
-5.152
11
63.18
21
-22.814
0
LINE
5
149
100
AcDbEntity
8
0
6
ByLayer
62
256
370
-1
100
AcDbLine
10
63.18
20
-22.814
11
62.03
21
-22.814
0
LINE
5
14A
100
AcDbEntity
8
0
6
ByLayer
62
256
370
-1
100
AcDbLine
10
62.03
20
-22.814
11
58.563
21
-5.152
0
LINE
5
14B
100
AcDbEntity
8
0
6
ByLayer
62
256
370
-1
100
AcDbLine
10
58.563
20
-5.152
11
58.531
21
-4
0
LINE
5
14C
100
AcDbEntity
8
0
6
ByLayer
62
256
370
-1
100
AcDbLine
10
58.531
20
-4
11
40.679
21
-4
0
LINE
5
14D
100
AcDbEntity
8
0
6
ByLayer
62
256
370
-1
100
AcDbLine
10
40.679
20
-4
11
40.647
21
-5.152
0
LINE
5
14E
100
AcDbEntity
8
0
6
ByLayer
62
256
370
-1
100
AcDbLine
10
40.647
20
-5.152
11
37.18
21
-22.814
0
LINE
5
14F
100
AcDbEntity
8
0
6
ByLayer
62
256
370
-1
100
AcDbLine
10
37.18
20
-22.814
11
36.03
21
-22.814
0
LINE
5
150
100
AcDbEntity
8
0
6
ByLayer
62
256
370
-1
100
AcDbLine
10
36.03
20
-22.814
11
32.563
21
-5.152
0
LINE
5
151
100
AcDbEntity
8
0
6
ByLayer
62
256
370
-1
100
AcDbLine
10
32.563
20
-5.152
11
32.531
21
-4
0
LINE
5
152
100
AcDbEntity
8
0
6
ByLayer
62
256
370
-1
100
AcDbLine
10
32.531
20
-4
11
14.594
21
-4
0
LINE
5
153
100
AcDbEntity
8
0
6
ByLayer
62
256
370
-1
100
AcDbLine
10
14.594
20
-4
11
14.615
21
-5.117
0
LINE
5
154
100
AcDbEntity
8
0
6
ByLayer
62
256
370
-1
100
AcDbLine
10
14.615
20
-5.117
11
11.147
21
-22.131
0
LINE
5
155
100
AcDbEntity
8
0
6
ByLayer
62
256
370
-1
100
AcDbLine
10
11.147
20
-22.131
11
10.037
21
-22.131
0
LINE
5
156
100
AcDbEntity
8
0
6
ByLayer
62
256
370
-1
100
AcDbLine
10
10.037
20
-22.131
11
6.806
21
-5.152
0
LINE
5
157
100
AcDbEntity
8
0
6
ByLayer
62
256
370
-1
100
AcDbLine
10
6.806
20
-5.152
11
6.719
21
-4
0
LINE
5
158
100
AcDbEntity
8
0
6
ByLayer
62
256
370
-1
100
AcDbLine
10
6.719
20
-4
11
3
21
-4
0
LINE
5
159
100
AcDbEntity
8
0
6
ByLayer
62
256
370
-1
100
AcDbLine
10
3
20
-4
11
3
21
-20
0
LINE
5
15A
100
AcDbEntity
8
0
6
ByLayer
62
256
370
-1
100
AcDbLine
10
3
20
-20
11
-2
21
-20
0
ENDBLK
5
5F
330
5D
100
AcDbEntity
8
0
100
AcDbBlockEnd
0
ENDSEC
0
SECTION
2
ENTITIES
0
LINE
5
15B
100
AcDbEntity
8
help
6
ByLayer
62
256
370
-1
100
AcDbLine
10
0
20
0
11
1.76776695297
21
1.76776695297
0
LINE
5
15C
100
AcDbEntity
8
help
6
ByLayer
62
256
370
-1
100
AcDbLine
10
-1.76776695297
20
1.76776695297
11
2.77555756157e-16
21
3.53553390592
0
LINE
5
15D
100
AcDbEntity
8
help
6
ByLayer
62
256
370
-1
100
AcDbLine
10
1.76776695297
20
-1.76776695297
11
3.53553390592
21
-5.55111512312e-16
0
LINE
5
15E
100
AcDbEntity
8
help
6
ByLayer
62
256
370
-1
100
AcDbLine
10
-2.5
20
3.06161699788e-16
11
-2.5
21
25
0
LINE
5
15F
100
AcDbEntity
8
help
6
ByLayer
62
256
370
-1
100
AcDbLine
10
6.72151834463
20
10.2570522506
11
-10.956151185
21
27.9347217803
0
LINE
5
160
100
AcDbEntity
8
help
6
ByLayer
62
256
370
-1
100
AcDbLine
10
-2.375
20
13.4
11
-7.5
21
13.4
0
LINE
5
161
100
AcDbEntity
8
help
6
ByLayer
62
256
370
-1
100
AcDbLine
10
2.5
20
12
11
2.5
21
1.03553390593
0
LINE
5
162
100
AcDbEntity
8
help
6
CONTINUOUS
62
256
370
-1
100
AcDbLine
10
1.68388934883e-16
20
2.75
11
-6.80322819692
21
2.75
0
LINE
5
163
100
AcDbEntity
8
help
6
CONTINUOUS
62
256
370
-1
100
AcDbLine
10
1.68388934883e-16
20
2.75
11
-6.80322819692
21
2.75
0
LINE
5
164
100
AcDbEntity
8
help
6
CONTINUOUS
62
256
370
-1
100
AcDbLine
10
1.68388934883e-16
20
2.75
11
-6.80322819692
21
2.75
0
LINE
5
165
100
AcDbEntity
8
help
6
CONTINUOUS
62
256
370
-1
100
AcDbLine
10
1.68388934883e-16
20
2.75
11
2.5
21
2.75
0
LINE
5
166
100
AcDbEntity
8
help
6
CONTINUOUS
62
256
370
-1
100
AcDbLine
10
1.68388934883e-16
20
2.75
11
-5.32163627848
21
2.75
0
LINE
5
167
100
AcDbEntity
8
help
6
CONTINUOUS
62
256
370
-1
100
AcDbLine
10
-5.32163627848
20
2.75
11
1.68388934883e-16
21
2.75
0
LINE
5
168
100
AcDbEntity
8
tubo
6
ByLayer
62
256
370
-1
100
AcDbLine
10
-45.0000000004
20
-132.5
11
-45.0000000004
21
-92.8553390596
0
LINE
5
169
100
AcDbEntity
8
tubo
6
ByLayer
62
256
370
-1
100
AcDbLine
10
-95.0000000001
20
-132.5
11
-100
21
-132.5
0
LINE
5
16A
100
AcDbEntity
8
tubo
6
ByLayer
62
256
370
-1
100
AcDbLine
10
-100
20
-132.5
11
-100
21
-145
0
LINE
5
16B
100
AcDbEntity
8
tubo
6
ByLayer
62
256
370
-1
100
AcDbLine
10
-100
20
-145
11
-39.9999999997
21
-145
0
LINE
5
16C
100
AcDbEntity
8
tubo
6
ByLayer
62
256
370
-1
100
AcDbLine
10
-39.9999999997
20
-145
11
-40.0000000003
21
-132.5
0
LINE
5
16D
100
AcDbEntity
8
tubo
6
ByLayer
62
256
370
-1
100
AcDbLine
10
-40.0000000003
20
-132.5
11
-45.0000000004
21
-132.5
0
LINE
5
16E
100
AcDbEntity
8
container
6
ByLayer
62
256
370
-1
100
AcDbLine
10
-38.1968363082
20
126.079858989
11
138.579858988
21
-50.6968363081
0
LINE
5
16F
100
AcDbEntity
8
container
6
ByLayer
62
256
370
-1
100
AcDbLine
10
-38.1801948467
20
126.09650045
11
456.794551984
21
621.071247281
0
LINE
5
170
100
AcDbEntity
8
container
6
ByLayer
62
256
370
-1
100
AcDbLine
10
456.794551984
20
621.071247281
11
633.57124728
21
444.294551984
0
LINE
5
171
100
AcDbEntity
8
container
6
ByLayer
62
256
370
-1
100
AcDbLine
10
633.57124728
20
444.294551984
11
138.59650045
21
-50.6801948466
0
LINE
5
172
100
AcDbEntity
8
tubo
6
ByLayer
62
256
370
-1
100
AcDbLine
10
-45.0000000002
20
-7.07511826903e-11
11
-45.0000000002
21
-22.1446609408
0
LINE
5
173
100
AcDbEntity
8
tubo
6
ByLayer
62
256
370
-1
100
AcDbLine
10
-95.0000000003
20
-7.77156117238e-15
11
-100
21
1.11022302463e-15
0
LINE
5
174
100
AcDbEntity
8
tubo
6
ByLayer
62
256
370
-1
100
AcDbLine
10
-100
20
1.11022302463e-15
11
-100
21
12.5
0
LINE
5
175
100
AcDbEntity
8
tubo
6
ByLayer
62
256
370
-1
100
AcDbLine
10
-100
20
12.5
11
-40.0000000002
21
12.5
0
LINE
5
176
100
AcDbEntity
8
tubo
6
ByLayer
62
256
370
-1
100
AcDbLine
10
-40.0000000002
20
12.5
11
-40.0000000003
21
-2.99760216649e-14
0
LINE
5
177
100
AcDbEntity
8
tubo
6
ByLayer
62
256
370
-1
100
AcDbLine
10
-40.0000000003
20
-2.99760216649e-14
11
-45.0000000002
21
-7.07511826903e-11
0
LINE
5
178
100
AcDbEntity
8
SERVO
6
ByLayer
62
256
370
-1
100
AcDbLine
10
-120
20
12.5
11
-27.5000000002
21
12.5
0
LINE
5
179
100
AcDbEntity
8
SERVO
6
ByLayer
62
256
370
-1
100
AcDbLine
10
-27.5000000002
20
12.5
11
-27.5000000002
21
50
0
LINE
5
17A
100
AcDbEntity
8
SERVO
6
ByLayer
62
256
370
-1
100
AcDbLine
10
-27.5000000002
20
50
11
-120
21
50.0000000003
0
LINE
5
17B
100
AcDbEntity
8
SERVO
6
ByLayer
62
256
370
-1
100
AcDbLine
10
-120
20
50.0000000003
11
-120
21
12.5
0
LINE
5
17C
100
AcDbEntity
8
tubo
6
ByLayer
62
256
370
-1
100
AcDbLine
10
-95.0000000003
20
-7.77156117238e-15
11
-95.0000000001
21
-132.5
0
LINE
5
17D
100
AcDbEntity
8
tubo
6
ByLayer
62
256
370
-1
100
AcDbLine
10
20.5096679917
20
-27.3456710675
11
-45.0000000004
21
-92.8553390596
0
LINE
5
17E
100
AcDbEntity
8
tubo
6
ByLayer
62
256
370
-1
100
AcDbLine
10
-45.0000000002
20
-22.1446609408
11
-28.9477674578
21
-6.09242839833
0
LINE
5
17F
100
AcDbEntity
8
tubo
6
ByLayer
62
256
370
-1
100
AcDbLine
10
-28.9477674578
20
-6.09242839833
11
-32.5233405972
21
-2.59693372593
0
LINE
5
180
100
AcDbEntity
8
tubo
6
ByLayer
62
256
370
-1
100
AcDbLine
10
-32.5233405972
20
-2.59693372593
11
-23.6845058324
21
6.2419010389
0
LINE
5
181
100
AcDbEntity
8
tubo
6
ByLayer
62
256
370
-1
100
AcDbLine
10
-23.6845058324
20
6.2419010389
11
18.7419010388
21
-36.1845058323
0
LINE
5
182
100
AcDbEntity
8
tubo
6
ByLayer
62
256
370
-1
100
AcDbLine
10
18.7419010388
20
-36.1845058323
11
9.90306627394
21
-45.0233405971
0
LINE
5
183
100
AcDbEntity
8
tubo
6
ByLayer
62
256
370
-1
100
AcDbLine
10
9.90306627394
20
-45.0233405971
11
6.36753236801
21
-41.4878066912
0
LINE
5
184
100
AcDbEntity
8
embudo
6
ByLayer
62
256
370
-1
100
AcDbLine
10
-33.4072240737
20
-12.3196519672
11
-17.497321497
21
3.59025060945
0
LINE
5
185
100
AcDbEntity
8
embudo
6
ByLayer
62
256
370
-1
100
AcDbLine
10
-17.497321497
20
3.59025060945
11
-12.1940206381
21
83.1397634929
0
LINE
5
186
100
AcDbEntity
8
embudo extrude
6
ByLayer
62
256
370
-1
100
AcDbLine
10
93.8719965398
20
-22.926253685
11
16.0902506093
21
-29.9973214969
0
LINE
5
187
100
AcDbEntity
8
embudo extrude
6
ByLayer
62
256
370
-1
100
AcDbLine
10
16.0902506093
20
-29.9973214969
11
0.180348032628
21
-45.9072240736
0
LINE
5
188
100
AcDbEntity
8
embudo extrude
6
ByLayer
62
256
370
-1
100
AcDbLine
10
15.6483088711
20
-26.9037293292
11
1.32939655206
21
-41.2226416482
0
LINE
5
189
100
AcDbEntity
8
embudo extrude
6
ByLayer
62
256
370
-1
100
AcDbLine
10
0.180348032628
20
-45.9072240736
11
1.32939655206
21
-41.2226416482
0
LINE
5
18A
100
AcDbEntity
8
embudo extrude
6
ByLayer
62
256
370
-1
100
AcDbLine
10
92.1042295869
20
-21.1584867321
11
15.6483088711
21
-26.9037293292
0
LINE
5
18B
100
AcDbEntity
8
embudo extrude
6
ByLayer
62
256
370
-1
100
AcDbLine
10
92.1042295869
20
-21.1584867321
11
93.8719965398
21
-22.926253685
0
LINE
5
18C
100
AcDbEntity
8
embudo
6
ByLayer
62
256
370
-1
100
AcDbLine
10
93.8719965398
20
-22.926253685
11
16.0902506093
21
-29.9973214969
0
LINE
5
18D
100
AcDbEntity
8
embudo
6
ByLayer
62
256
370
-1
100
AcDbLine
10
16.0902506093
20
-29.9973214969
11
0.180348032628
21
-45.9072240736
0
LINE
5
18E
100
AcDbEntity
8
embudo
6
ByLayer
62
256
370
-1
100
AcDbLine
10
-12.1940206381
20
83.1397634929
11
93.8719965398
21
-22.926253685
0
LINE
5
18F
100
AcDbEntity
8
embudo
6
ByLayer
62
256
370
-1
100
AcDbLine
10
-33.4072240737
20
-12.3196519672
11
0.180348032628
21
-45.9072240736
0
DIMENSION
5
190
100
AcDbEntity
8
splitter
6
ByLayer
62
256
370
-1
100
AcDbDimension
2
*D1
10
-205.147186258
20
-145
30
0
11
-223.897186258
21
-66.25
31
0
70
33
71
5
3
Standard
53
0
210
0
220
0
230
1
100
AcDbAlignedDimension
13
-100
23
12.5
33
0
14
-100
24
-145
34
0
0
LINE
5
191
100
AcDbEntity
8
SERVO
6
ByLayer
62
256
370
-1
100
AcDbLine
10
-70
20
12.5
11
-70
21
-7.5
0
LINE
5
192
100
AcDbEntity
8
SERVO
6
ByLayer
62
256
370
-1
100
AcDbLine
10
-70
20
-7.5
11
-52
21
-7.5
0
LINE
5
193
100
AcDbEntity
8
SERVO
6
ByLayer
62
256
370
-1
100
AcDbLine
10
-70
20
-7.5
11
-85
21
-7.5
0
DIMENSION
5
194
100
AcDbEntity
8
SERVO
6
ByLayer
62
256
370
-1
100
AcDbDimension
2
*D2
10
-120
20
-132.5
30
0
11
-138.75
21
-70
31
0
70
33
71
5
3
Standard
53
0
210
0
220
0
230
1
100
AcDbAlignedDimension
13
-70
23
-7.5
33
0
14
-70
24
-132.5
34
0
0
INSERT
5
195
100
AcDbEntity
8
auger
6
ByLayer
62
256
370
-1
100
AcDbBlockReference
2
auger-3
10
-70
20
-10
30
0
41
1
42
1
43
0
50
-90
70
1
71
1
44
1
45
1
0
ENDSEC
0
SECTION
2
OBJECTS
0
DICTIONARY
5
C
330
0
100
AcDbDictionary
281
1
3
ACAD_GROUP
350
D
0
DICTIONARY
5
D
330
C
100
AcDbDictionary
281
1
0
ENDSEC
0
EOF
